<?xml version="1.0" encoding="UTF-8"?>
<svg width="906px" height="952px" viewBox="0 0 906 952" version="1.1" xmlns="http://www.w3.org/2000/svg" xmlns:xlink="http://www.w3.org/1999/xlink">
    <title>icons8-healthy_food_calories_calculator</title>
    <g id="Page-1" stroke="none" stroke-width="1" fill="none" fill-rule="evenodd">
        <g id="icons8-healthy_food_calories_calculator" transform="translate(0.000000, 23.000000)">
            <path d="M904.75425,35.0300976 C901.1076,18.4440488 887.44965,4.78095122 870.86985,1.13292683 C848.31045,-3.82929268 827.9028,8.06643902 819.45435,26.5558049 C814.78845,24.154 809.57895,22.6585366 803.96175,22.6585366 C791.391,22.6585366 780.40575,29.5014146 774.5394,39.652439 C773.4975,41.4424634 702.03675,158.609756 702.03675,158.609756 L747.33675,203.926829 C747.33675,203.926829 864.4599,132.439146 866.24925,131.396854 C876.39645,125.528293 883.23675,114.538902 883.23675,101.963415 C883.23675,96.3440976 881.74185,91.1326341 879.34095,86.4649756 C897.82335,78.0133415 909.7146,57.598 904.75425,35.0300976 Z" id="Path" fill="#8BC34A" fill-rule="nonzero"></path>
            <path d="M770.4171,158.179244 C747.92565,135.656659 699.09225,90.6341463 646.6575,90.6341463 C611.55,90.6341463 580.6101,108.511732 562.4448,135.656659 C551.6634,151.74422 309.10455,552.14322 342.85305,585.904439 C376.60155,619.665659 776.82705,377.01539 792.9312,366.229927 C820.0659,348.05778 837.93675,317.10622 837.93675,281.985488 C837.93675,229.530976 792.9312,180.679171 770.4171,158.179244 Z" id="Path" fill="#FF8F00" fill-rule="nonzero"></path>
            <path d="M702.03675,249.243902 C696.23835,249.243902 690.43995,247.023366 686.0232,242.604951 L640.7232,197.287878 C631.86705,188.42839 631.86705,174.108195 640.7232,165.248707 C649.57935,156.38922 663.89415,156.38922 672.7503,165.248707 L718.0503,210.56578 C726.90645,219.425268 726.90645,233.745463 718.0503,242.604951 C713.63355,247.023366 707.83515,249.243902 702.03675,249.243902 Z M702.03675,385.195122 C696.23835,385.195122 690.43995,382.974585 686.0232,378.556171 L618.0732,310.580561 C609.21705,301.721073 609.21705,287.400878 618.0732,278.54139 C626.92935,269.681902 641.24415,269.681902 650.1003,278.54139 L718.0503,346.517 C726.90645,355.376488 726.90645,369.696683 718.0503,378.556171 C713.63355,382.974585 707.83515,385.195122 702.03675,385.195122 Z" id="Shape" fill="#EF6C00" fill-rule="nonzero"></path>
            <path d="M294.33675,113.292683 L294.33675,45.3170732 C294.33675,20.2793902 314.6085,0 339.63675,0" id="Path" stroke="#8BC34A" stroke-width="45.32" stroke-linecap="round"></path>
            <path d="M543.48675,204.833171 C543.48675,226.811951 543.48675,385.195122 475.53675,521.146341 C456.05775,559.892439 393.99675,583.457317 380.18025,588.21561 C378.36825,588.895366 377.46225,589.121951 377.46225,589.121951 L211.21125,589.121951 C211.21125,589.121951 210.30525,588.895366 208.49325,588.21561 C194.67675,583.457317 132.61575,559.892439 113.13675,521.146341 C45.18675,385.195122 45.18675,226.811951 45.18675,204.833171 C45.18675,167.22 66.02475,135.95122 107.47425,135.95122 L109.73925,135.95122 C111.32475,135.95122 113.13675,135.95122 114.72225,136.177805 C155.94525,138.443659 211.21125,158.609756 211.21125,158.609756 L377.46225,158.609756 C377.46225,158.609756 432.72825,138.443659 473.95125,136.177805 C475.53675,135.95122 477.34875,135.95122 478.93425,135.95122 L481.19925,135.95122 C522.64875,135.95122 543.48675,167.22 543.48675,204.833171 Z" id="Path" fill="#FF3D00" fill-rule="nonzero"></path>
            <path d="M211.43775,589.121951 L377.23575,589.121951 C398.52675,566.69 415.51425,539.046585 424.57425,513.215854 C464.89125,395.844634 475.53675,234.969024 475.53675,158.609756 C475.53675,150.679268 475.08375,143.201951 473.95125,136.177805 C432.72825,138.443659 377.46225,158.609756 377.46225,158.609756 L211.21125,158.609756 C211.21125,158.609756 155.94525,138.443659 114.72225,136.177805 C113.58975,143.201951 113.13675,150.679268 113.13675,158.609756 C113.13675,234.969024 123.78225,395.844634 164.09925,513.215854 C173.15925,539.046585 190.14675,566.69 211.43775,589.121951 Z" id="Path" fill="#DD2C00" fill-rule="nonzero"></path>
            <path d="M371.70915,90.6341463 C339.63675,90.6341463 329.8293,113.292683 294.33675,113.292683 C258.8442,113.292683 249.03675,90.6341463 216.96435,90.6341463 C177.9384,90.6341463 158.43675,113.292683 158.43675,158.609756 C158.43675,226.585366 168.1536,385.195122 206.9757,498.487805 C223.1025,545.526927 269.4444,588.37422 294.33675,589.121951 C319.2291,588.37422 365.571,545.526927 381.6978,498.487805 C420.5199,385.195122 430.23675,226.585366 430.23675,158.609756 C430.23675,113.292683 410.7351,90.6341463 371.70915,90.6341463 Z" id="Path" fill="#FF3D00" fill-rule="nonzero"></path>
            <path d="M860.58675,385.195122 L860.7,459.673732 C860.7,600.269951 767.13285,735.337488 631.36875,793.04878 C529.44375,793.04878 376.55625,793.04878 274.63125,793.04878 C138.8898,735.337488 45.3,600.247293 45.3,459.673732 L45.18675,407.853659" id="Path" fill="#FFB74D" fill-rule="nonzero"></path>
            <path d="M860.7,430.512195 C885.72825,430.512195 906,410.232805 906,385.195122 C906,360.157439 885.72825,339.878049 860.7,339.878049 L45.3,339.878049 C20.27175,339.878049 0,360.157439 0,385.195122 C0,410.232805 20.27175,430.512195 45.3,430.512195 L860.7,430.512195 Z" id="Path" fill="#FFCC80" fill-rule="nonzero"></path>
            <path d="M249.03675,566.463415 L181.08675,566.463415 C168.58395,566.463415 158.43675,556.335049 158.43675,543.804878 C158.43675,531.274707 168.58395,521.146341 181.08675,521.146341 L249.03675,521.146341 C261.53955,521.146341 271.68675,531.274707 271.68675,543.804878 C271.68675,556.335049 261.53955,566.463415 249.03675,566.463415 Z M588.78675,566.463415 L407.58675,566.463415 C395.08395,566.463415 384.93675,556.335049 384.93675,543.804878 C384.93675,531.274707 395.08395,521.146341 407.58675,521.146341 L588.78675,521.146341 C601.28955,521.146341 611.43675,531.274707 611.43675,543.804878 C611.43675,556.335049 601.28955,566.463415 588.78675,566.463415 Z M407.58675,702.414634 L316.98675,702.414634 C304.48395,702.414634 294.33675,692.286268 294.33675,679.756098 C294.33675,667.225927 304.48395,657.097561 316.98675,657.097561 L407.58675,657.097561 C420.08955,657.097561 430.23675,667.225927 430.23675,679.756098 C430.23675,692.286268 420.08955,702.414634 407.58675,702.414634 Z" id="Shape" fill="#FF9100" fill-rule="nonzero"></path>
            <line x1="543.48675" y1="589.121951" x2="702.03675" y2="589.121951" id="Path" stroke="#995F1A" stroke-width="45.32" stroke-linejoin="round"></line>
            <path d="M525.0723,929 L856.32855,929 C883.68975,929 905.88675,906.794634 905.88675,879.44578 L905.88675,389.454927 C905.88675,362.083415 883.68975,339.878049 856.32855,339.878049 L525.0723,339.878049 C497.73375,339.878049 475.53675,362.083415 475.53675,389.454927 L475.53675,879.44578 C475.53675,906.794634 497.73375,929 525.0723,929 Z" id="Path" fill="#616161" fill-rule="nonzero"></path>
            <path d="M819.5223,634.439024 L788.37855,634.439024 C778.2087,634.439024 769.98675,626.213976 769.98675,616.040293 L769.98675,584.884805 C769.98675,574.688463 778.2087,566.463415 788.37855,566.463415 L819.5223,566.463415 C829.7148,566.463415 837.93675,574.688463 837.93675,584.884805 L837.93675,616.040293 C837.93675,626.213976 829.7148,634.439024 819.5223,634.439024 Z" id="Path" fill="#FF5252" fill-rule="nonzero"></path>
            <path d="M593.0223,634.439024 L561.87855,634.439024 C551.7087,634.439024 543.48675,626.213976 543.48675,616.040293 L543.48675,584.884805 C543.48675,574.688463 551.7087,566.463415 561.87855,566.463415 L593.0223,566.463415 C603.2148,566.463415 611.43675,574.688463 611.43675,584.884805 L611.43675,616.040293 C611.43675,626.213976 603.2148,634.439024 593.0223,634.439024 Z M724.68675,616.040293 L724.68675,584.884805 C724.68675,574.688463 716.4648,566.463415 706.2723,566.463415 L675.12855,566.463415 C664.9587,566.463415 656.73675,574.688463 656.73675,584.884805 L656.73675,616.040293 C656.73675,626.213976 664.9587,634.439024 675.12855,634.439024 L706.2723,634.439024 C716.4648,634.439024 724.68675,626.213976 724.68675,616.040293 Z M611.43675,729.332976 L611.43675,698.177488 C611.43675,687.981146 603.2148,679.756098 593.0223,679.756098 L561.87855,679.756098 C551.7087,679.756098 543.48675,687.981146 543.48675,698.177488 L543.48675,729.332976 C543.48675,739.506659 551.7087,747.731707 561.87855,747.731707 L593.0223,747.731707 C603.2148,747.731707 611.43675,739.506659 611.43675,729.332976 Z M724.68675,729.332976 L724.68675,698.177488 C724.68675,687.981146 716.4648,679.756098 706.2723,679.756098 L675.12855,679.756098 C664.9587,679.756098 656.73675,687.981146 656.73675,698.177488 L656.73675,729.332976 C656.73675,739.506659 664.9587,747.731707 675.12855,747.731707 L706.2723,747.731707 C716.4648,747.731707 724.68675,739.506659 724.68675,729.332976 Z M837.93675,729.332976 L837.93675,698.177488 C837.93675,687.981146 829.7148,679.756098 819.5223,679.756098 L788.37855,679.756098 C778.2087,679.756098 769.98675,687.981146 769.98675,698.177488 L769.98675,729.332976 C769.98675,739.506659 778.2087,747.731707 788.37855,747.731707 L819.5223,747.731707 C829.7148,747.731707 837.93675,739.506659 837.93675,729.332976 Z M611.43675,842.625659 L611.43675,811.470171 C611.43675,801.273829 603.2148,793.04878 593.0223,793.04878 L561.87855,793.04878 C551.7087,793.04878 543.48675,801.273829 543.48675,811.470171 L543.48675,842.625659 C543.48675,852.799341 551.7087,861.02439 561.87855,861.02439 L593.0223,861.02439 C603.2148,861.02439 611.43675,852.799341 611.43675,842.625659 Z M724.68675,842.625659 L724.68675,811.470171 C724.68675,801.273829 716.4648,793.04878 706.2723,793.04878 L675.12855,793.04878 C664.9587,793.04878 656.73675,801.273829 656.73675,811.470171 L656.73675,842.625659 C656.73675,852.799341 664.9587,861.02439 675.12855,861.02439 L706.2723,861.02439 C716.4648,861.02439 724.68675,852.799341 724.68675,842.625659 Z M837.93675,842.625659 L837.93675,811.470171 C837.93675,801.273829 829.7148,793.04878 819.5223,793.04878 L788.37855,793.04878 C778.2087,793.04878 769.98675,801.273829 769.98675,811.470171 L769.98675,842.625659 C769.98675,852.799341 778.2087,861.02439 788.37855,861.02439 L819.5223,861.02439 C829.7148,861.02439 837.93675,852.799341 837.93675,842.625659 Z" id="Shape" fill="#E0E0E0" fill-rule="nonzero"></path>
            <path d="M905.88675,521.146341 L905.88675,389.432268 C905.88675,362.083415 883.68975,339.878049 856.32855,339.878049 L525.0723,339.878049 C497.73375,339.878049 475.53675,362.083415 475.53675,389.454927 L475.53675,521.146341 L905.88675,521.146341 Z" id="Path" fill="#424242" fill-rule="nonzero"></path>
            <polygon id="Path" fill="#9CCC65" fill-rule="nonzero" points="520.83675 385.195122 860.58675 385.195122 860.58675 475.829268 520.83675 475.829268"></polygon>
            <polygon id="Path" fill="#33691E" fill-rule="nonzero" points="792.63675 407.853659 837.93675 407.853659 837.93675 453.170732 792.63675 453.170732"></polygon>
        </g>
    </g>
</svg>