<?xml version="1.0" encoding="UTF-8"?>
<svg width="430px" height="240px" viewBox="0 0 430 240" version="1.1" xmlns="http://www.w3.org/2000/svg" xmlns:xlink="http://www.w3.org/1999/xlink">
    <title>icons8-kawaii_taco</title>
    <g id="Page-1" stroke="none" stroke-width="1" fill="none" fill-rule="evenodd">
        <g id="icons8-kawaii_taco">
            <path d="M220.458632,43.64 C307.668091,43.64 381.607633,98.89 408.667465,175.72 C412.157443,160.83 430.737328,148.25 429.977333,130.92 C429.097338,110.86 392.667564,98.61 378.347653,84.5 C364.027742,70.39 359.077773,43.7 341.437882,33.65 C324.03799,23.73 298.14815,32.76 278.278274,27.53 C259.068393,22.46 241.288503,0 220.458632,0 C199.628762,0 181.848872,22.46 162.648991,27.51 C142.779114,32.74 116.889275,23.72 99.4993828,33.63 C81.8494923,43.69 76.9095229,70.37 62.5896117,84.48 C48.2697006,98.59 10.9199323,110.84 10.0399377,130.9 C9.35994194,146.43 24.7198467,164.12 30.5998102,180.2 C56.2696509,101.01 131.529184,43.64 220.458632,43.64 Z" id="Path" fill="#8BC34A" fill-rule="nonzero"></path>
            <path d="M29.9998139,210 L95.7794058,210 C98.4593892,203.87 99.9993797,197.12 99.9993797,190 C99.9993797,162.39 77.6095186,140 49.9996898,140 C22.3898611,140 0,162.39 0,190 C0,210.49 12.3599233,228.06 29.9998139,235.78 L29.9998139,210 Z M399.997519,210 L334.217927,210 C331.537943,203.87 329.997953,197.12 329.997953,190 C329.997953,162.39 352.387814,140 379.997643,140 C407.607471,140 429.997333,162.39 429.997333,190 C429.997333,210.49 417.637409,228.06 399.997519,235.78 L399.997519,210 Z" id="Shape" fill="#795548" fill-rule="nonzero"></path>
            <path d="M169.998945,10 C142.384879,10 119.999256,32.3857625 119.999256,60 C119.999256,87.6142375 142.384879,110 169.998945,110 C197.613012,110 219.998635,87.6142375 219.998635,60 C219.998635,32.3857625 197.613012,10 169.998945,10 Z" id="Path" fill="#F44336" fill-rule="nonzero"></path>
            <path d="M89.9994417,60 C62.3853755,60 39.9997519,82.3857625 39.9997519,110 C39.9997519,137.614237 62.3853755,160 89.9994417,160 C117.613508,160 139.999132,137.614237 139.999132,110 C139.999132,82.3857625 117.613508,60 89.9994417,60 L89.9994417,60 Z M269.998325,10 C242.384259,10 219.998635,32.3857625 219.998635,60 C219.998635,87.6142375 242.384259,110 269.998325,110 C297.612391,110 319.998015,87.6142375 319.998015,60 C319.998015,32.3857625 297.612391,10 269.998325,10 L269.998325,10 Z" id="Shape" fill="#F44336" fill-rule="nonzero"></path>
            <path d="M349.997829,60 C322.383763,60 299.998139,82.3857625 299.998139,110 C299.998139,137.614237 322.383763,160 349.997829,160 C377.611895,160 399.997519,137.614237 399.997519,110 C399.997519,82.3857625 377.611895,60 349.997829,60 Z" id="Path" fill="#F44336" fill-rule="nonzero"></path>
            <path d="M419.997395,240 C419.997395,129.54 330.45795,40 219.998635,40 C109.53932,40 19.9998759,129.54 19.9998759,240 L419.997395,240 Z" id="Path" fill="#FFC107" fill-rule="nonzero"></path>
            <path d="M159.999007,90 C148.953381,90 139.999132,98.954305 139.999132,110 C139.999132,121.045695 148.953381,130 159.999007,130 C171.044634,130 179.998883,121.045695 179.998883,110 C179.998883,98.954305 171.044634,90 159.999007,90 Z" id="Path" fill="#212121" fill-rule="nonzero"></path>
            <path d="M159.999007,90 C154.476194,90 149.99907,94.4771525 149.99907,100 C149.99907,105.522847 154.476194,110 159.999007,110 C165.521821,110 169.998945,105.522847 169.998945,100 C169.998945,94.4771525 165.521821,90 159.999007,90 Z" id="Path" fill="#FFFFFF" fill-rule="nonzero"></path>
            <path d="M279.998263,90 C268.952637,90 259.998387,98.954305 259.998387,110 C259.998387,121.045695 268.952637,130 279.998263,130 C291.04389,130 299.998139,121.045695 299.998139,110 C299.998139,98.954305 291.04389,90 279.998263,90 Z" id="Path" fill="#212121" fill-rule="nonzero"></path>
            <path d="M279.998263,90 C274.47545,90 269.998325,94.4771525 269.998325,100 C269.998325,105.522847 274.47545,110 279.998263,110 C285.521076,110 289.998201,105.522847 289.998201,100 C289.998201,94.4771525 285.521076,90 279.998263,90 Z" id="Path" fill="#FFFFFF" fill-rule="nonzero"></path>
            <path d="M249.998449,150 C245.878475,161.65 233.058554,170 219.998635,170 C206.938716,170 194.118796,161.65 189.998821,150" id="Path" stroke="#212121" stroke-width="2" stroke-linecap="round"></path>
            <path d="M99.9993797,150 C94.4765664,150 89.9994417,154.477153 89.9994417,160 C89.9994417,165.522847 94.4765664,170 99.9993797,170 C105.522193,170 109.999318,165.522847 109.999318,160 C109.999318,154.477153 105.522193,150 99.9993797,150 Z M139.999132,150 C134.476318,150 129.999194,154.477153 129.999194,160 C129.999194,165.522847 134.476318,170 139.999132,170 C145.521945,170 149.99907,165.522847 149.99907,160 C149.99907,154.477153 145.521945,150 139.999132,150 Z M119.999256,180 C114.476442,180 109.999318,184.477153 109.999318,190 C109.999318,195.522847 114.476442,200 119.999256,200 C125.522069,200 129.999194,195.522847 129.999194,190 C129.999194,184.477153 125.522069,180 119.999256,180 Z M299.998139,150 C294.475326,150 289.998201,154.477153 289.998201,160 C289.998201,165.522847 294.475326,170 299.998139,170 C305.520952,170 309.998077,165.522847 309.998077,160 C309.998077,154.477153 305.520952,150 299.998139,150 Z M339.997891,150 C334.475078,150 329.997953,154.477153 329.997953,160 C329.997953,165.522847 334.475078,170 339.997891,170 C345.520704,170 349.997829,165.522847 349.997829,160 C349.997829,154.477153 345.520704,150 339.997891,150 Z M319.998015,180 C314.475202,180 309.998077,184.477153 309.998077,190 C309.998077,195.522847 314.475202,200 319.998015,200 C325.520828,200 329.997953,195.522847 329.997953,190 C329.997953,184.477153 325.520828,180 319.998015,180 Z" id="Shape" fill="#F57C00" fill-rule="nonzero"></path>
        </g>
    </g>
</svg>