<?xml version="1.0" encoding="UTF-8"?>
<svg width="480px" height="413px" viewBox="0 0 480 413" version="1.1" xmlns="http://www.w3.org/2000/svg" xmlns:xlink="http://www.w3.org/1999/xlink">
    <title>icons8-italian_pizza</title>
    <g id="Page-1" stroke="none" stroke-width="1" fill="none" fill-rule="evenodd">
        <g id="icons8-italian_pizza" fill-rule="nonzero">
            <path d="M435,368 C435,241.933962 383.982233,128.018868 301.646628,46 L23.3219768,324.965409 C7.66305811,340.660377 18.7758391,368 41.0014011,368 L435,368 Z" id="Path" fill="#FFDD77"></path>
            <path d="M130.236666,273.277998 C102.310978,273.28562 79.6665568,295.942396 79.6589342,323.883326 C79.6513155,351.824255 102.283381,374.468676 130.209069,374.461057 C158.134757,374.453435 180.779178,351.796658 180.786801,323.855729 C180.794419,295.9148 158.162354,273.270379 130.236666,273.277998 Z" id="Path" fill="#FFFFFF" transform="translate(130.222867, 323.869527) rotate(-22.500000) translate(-130.222867, -323.869527) "></path>
            <path d="M130.232526,288.455456 C110.684545,288.460792 94.8334499,304.320536 94.8281141,323.879186 C94.822781,343.437837 110.665227,359.288932 130.213208,359.283598 C149.76119,359.278263 165.612285,343.418519 165.617621,323.859869 C165.622954,304.301218 149.780508,288.450123 130.232526,288.455456 Z" id="Path" fill="#FF697D" transform="translate(130.222867, 323.869527) rotate(-22.500000) translate(-130.222867, -323.869527) "></path>
            <path d="M256.018513,155.044884 C228.092825,155.052506 205.448404,177.709282 205.440781,205.650212 C205.433163,233.591141 228.065228,256.235562 255.990916,256.227943 C283.916604,256.220321 306.561025,233.563544 306.568648,205.622615 C306.576266,177.681686 283.944201,155.037265 256.018513,155.044884 Z" id="Path" fill="#FFFFFF" transform="translate(256.004715, 205.636413) rotate(-22.500000) translate(-256.004715, -205.636413) "></path>
            <path d="M345.084767,328.105651 C334.499,302.351071 304.758036,290.231268 279.049745,300.836095 C253.341453,311.440922 241.243434,341.235437 251.829201,366.990016 C251.829201,367.495008 252.333285,367.495008 252.333285,368 L344.580683,368 C350.125609,355.375206 350.629693,341.235437 345.084767,328.105651 Z" id="Path" fill="#FFFFFF"></path>
            <path d="M164.624713,223.749505 C156.247007,223.751791 149.45368,230.548824 149.451394,238.931103 C149.449108,247.313382 156.238728,254.106708 164.616434,254.104423 C172.994141,254.102136 179.787467,247.305103 179.789754,238.922824 C179.792039,230.540545 173.00242,223.747219 164.624713,223.749505 Z" id="Path" fill="#FFFFFF" transform="translate(164.620574, 238.926964) rotate(-22.500000) translate(-164.620574, -238.926964) "></path>
            <path d="M331.156241,334.031121 C323.552575,315.779186 302.769221,307.160216 285.027334,314.765189 C266.778536,322.370162 258.161048,343.157088 265.764714,360.902025 C266.778536,363.437016 268.299269,365.465009 269.820003,368 L327.607863,368 C334.197707,358.367034 336.225351,345.692079 331.156241,334.031121 Z" id="Path" fill="#FF697D"></path>
            <path d="M397.111702,367.407297 L434,367.407297 C434,241.573308 382.962766,127.867896 300.595745,46 L244,103.105385 C248.547872,110.685745 257.138298,126.857182 271.792553,139.491116 C294.026596,159.200054 327.37766,180.425064 347.085106,208.725078 C373.361702,247.132239 367.297872,320.40906 366.792553,326.473349 C364.265957,358.816221 377.404255,370.944799 397.111702,367.407297 Z" id="Path" fill="#FFA869"></path>
            <path d="M435.328539,383 L40.7168339,383 C24.0217233,383 9.85617488,373.385935 3.27931313,358.205832 C-3.29754862,343.025729 0.243838474,325.821612 11.8798247,314.183533 L233.469475,92.5540309 C239.540424,86.4819897 249.15276,86.4819897 254.717797,92.5540309 C260.788746,98.626072 260.788746,108.240137 254.717797,113.806175 L33.6340597,335.435678 C29.0808477,339.989708 30.598585,344.543739 31.6104099,346.567753 C32.6222348,348.591767 34.6458846,352.639794 40.7168339,352.639794 L434.822627,352.639794 C443.423138,352.639794 450,359.217839 450,367.819897 C450,376.421955 443.423138,383 435.328539,383 Z" id="Path" fill="#3F4A54"></path>
            <path d="M273.342573,57.6552066 C268.791341,46.5133884 270.814111,33.3457851 279.916574,24.7361983 C291.5475,13.0879339 310.763812,13.0879339 322.90043,24.7361983 C414.430758,116.402975 465,238.456529 465,368.613223 C465,385.32595 451.346305,399 434.658455,399 C417.970605,399 404.31691,385.32595 404.31691,368.613223 C404.31691,255.169256 360.321669,148.309091 279.916574,67.7841322 C276.88242,64.2390083 274.85965,61.2003306 273.342573,57.6552066 Z" id="Path" fill="#FFFFFF"></path>
            <path d="M434.575832,413 C409.340183,413 389.151664,392.761103 389.151664,367.462481 C389.151664,258.172435 346.755774,154.954058 269.534689,77.5402757 C265.496985,73.4924962 261.963995,68.4327718 259.44043,62.867075 C252.374448,45.6640123 256.412152,26.4370597 269.534689,13.2817764 C287.199643,-4.42725881 315.968283,-4.42725881 333.633237,13.2817764 C428.014564,107.898622 480,233.885758 480,367.462481 C480,392.761103 459.306768,413 434.575832,413 Z M301.331607,30.4848392 C297.293903,30.4848392 293.760912,32.0027565 290.732634,35.0385911 C286.190217,39.592343 285.180791,45.6640123 287.199643,51.7356815 C287.199643,51.7356815 287.199643,51.7356815 287.199643,51.7356815 C287.704356,53.7595712 289.218495,55.2774885 290.227921,56.7954058 C373.000849,139.774885 418.92973,250.582848 418.92973,367.968453 C418.92973,376.569985 425.490999,383.147626 434.071119,383.147626 C442.65124,383.147626 449.212508,376.569985 449.212508,367.968453 C449.212508,242.487289 400.25535,124.08974 311.930579,35.0385911 C308.902301,32.0027565 305.36931,30.4848392 301.331607,30.4848392 Z" id="Shape" fill="#3F4A54"></path>
            <path d="M256.014373,170.222342 C236.466392,170.227678 220.615297,186.087422 220.609961,205.646072 C220.604628,225.204723 236.447074,241.055818 255.995056,241.050484 C275.543037,241.045149 291.394132,225.185405 291.399468,205.626755 C291.404801,186.068104 275.562355,170.217009 256.014373,170.222342 L256.014373,170.222342 Z" id="Path" fill="#FF697D" transform="translate(256.004715, 205.636413) rotate(-22.500000) translate(-256.004715, -205.636413) "></path>
            <path d="M223.112126,295.04499 C214.734419,295.047276 207.941093,301.844309 207.938806,310.226588 C207.936521,318.608867 214.72614,325.402193 223.103847,325.399907 C231.481553,325.397621 238.274879,318.600588 238.277166,310.218309 C238.279452,301.83603 231.489832,295.042704 223.112126,295.04499 L223.112126,295.04499 Z" id="Path" fill="#FFFFFF" transform="translate(223.107986, 310.222448) rotate(-22.500000) translate(-223.107986, -310.222448) "></path>
            <path d="M336.374855,242.475751 C327.997148,242.478037 321.203822,249.27507 321.201535,257.657349 C321.19925,266.039628 327.988869,272.832954 336.366576,272.830668 C344.744282,272.828382 351.537609,266.031349 351.539895,257.64907 C351.542181,249.266791 344.752561,242.473465 336.374855,242.475751 Z" id="Path" fill="#FFFFFF" transform="translate(336.370715, 257.653209) rotate(-22.500000) translate(-336.370715, -257.653209) "></path>
        </g>
    </g>
</svg>